<!-- <svg xmlns="http://www.w3.org/2000/svg" viewBox="0 0 700 700" width="100" height="100">
  <defs>
    <linearGradient gradientTransform="rotate(150 .5 .5)" x1="50%" y1="0%" x2="50%" y2="100%" id="a">
      <stop stop-color="hsl(315, 100%, 72%)" offset="0%" />
      <stop stop-color="hsl(227, 100%, 50%)" offset="100%" />
    </linearGradient>
    <filter id="b" x="-20%" y="-20%" width="140%" height="140%" filterUnits="objectBoundingBox"
      primitiveUnits="userSpaceOnUse" color-interpolation-filters="sRGB">
      <feTurbulence type="fractalNoise" baseFrequency="0.005 0.003" numOctaves="2" seed="98" stitchTiles="stitch" x="0%"
        y="0%" width="100%" height="100%" result="turbulence" />
      <feGaussianBlur stdDeviation="20 0" x="0%" y="0%" width="100%" height="100%" in="turbulence" result="blur" />
      <feBlend mode="overlay" x="0%" y="0%" width="100%" height="100%" in="SourceGraphic" in2="blur" result="blend" />
    </filter>
  </defs>
  <path fill="url(#a)" filter="url(#b)" d="M0 0h700v700H0z" />
  
</svg> -->


<svg xmlns="http://www.w3.org/2000/svg" version="1.1" xmlns:xlink="http://www.w3.org/1999/xlink"
  xmlns:svgjs="http://svgjs.dev/svgjs" viewBox="0 0 700 700" width="100" height="100">
  <defs>
    <linearGradient gradientTransform="rotate(71, 0.5, 0.5)" x1="50%" y1="0%" x2="50%" y2="100%" id="ffflux-gradient">
      <stop stop-color="hsl(315, 100%, 72%)" stop-opacity="1" offset="0%"></stop>
      <stop stop-color="hsl(227, 100%, 50%)" stop-opacity="1" offset="100%"></stop>
    </linearGradient>
    <filter id="ffflux-filter" x="-20%" y="-20%" width="140%" height="140%" filterUnits="objectBoundingBox"
      primitiveUnits="userSpaceOnUse" color-interpolation-filters="sRGB">
      <feTurbulence type="fractalNoise" baseFrequency="0.004 0.003" numOctaves="2" seed="98" stitchTiles="stitch" x="0%"
        y="0%" width="100%" height="100%" result="turbulence"></feTurbulence>
      <feGaussianBlur stdDeviation="85 73" x="0%" y="0%" width="100%" height="100%" in="turbulence" edgeMode="duplicate"
        result="blur"></feGaussianBlur>
      <feBlend mode="overlay" x="0%" y="0%" width="100%" height="100%" in="SourceGraphic" in2="blur" result="blend">
      </feBlend>

    </filter>
  </defs>
  <rect width="700" height="700" fill="url(#ffflux-gradient)" filter="url(#ffflux-filter)"  opacity="0.47"></rect>
  <svg xmlns="http://www.w3.org/2000/svg" viewBox="0 0 800 800">
    <defs>
      <filter id="c" x="-100%" y="-100%" width="400%" height="400%" filterUnits="objectBoundingBox"
        primitiveUnits="userSpaceOnUse" color-interpolation-filters="sRGB">
        <feGaussianBlur stdDeviation="30" x="0%" y="0%" width="100%" height="100%" in="SourceGraphic" result="blur" />
      </filter>
      <filter id="h" x="-100%" y="-100%" width="400%" height="400%" filterUnits="objectBoundingBox"
        primitiveUnits="userSpaceOnUse" color-interpolation-filters="sRGB">
        <feGaussianBlur stdDeviation="2" x="0%" y="0%" width="100%" height="100%" in="SourceGraphic" result="blur" />
      </filter>
      <filter id="f" x="-100%" y="-100%" width="400%" height="400%" filterUnits="objectBoundingBox"
        primitiveUnits="userSpaceOnUse" color-interpolation-filters="sRGB">
        <feDropShadow stdDeviation="10" dx="10" dy="10" flood-color="#000" flood-opacity=".2" x="0%" y="0%" width="100%"
          height="100%" result="dropShadow" />
      </filter>
      <filter id="i" x="-100%" y="-100%" width="400%" height="400%" filterUnits="objectBoundingBox"
        primitiveUnits="userSpaceOnUse" color-interpolation-filters="sRGB">
        <feDropShadow stdDeviation="10" dx="10" dy="10" flood-color="#c20000" flood-opacity=".2" x="0%" y="0%"
          width="100%" height="100%" result="dropShadow" />
      </filter>
      <radialGradient id="d" r="93%" cx="20%" cy="20%">
        <stop offset="70%" stop-color="hsl(265, 100%, 81%)" stop-opacity="0" />
        <stop offset="97%" stop-color="#946fcb" />
      </radialGradient>
      <radialGradient id="e" r="65%" cx="28%" cy="20%">
        <stop offset="0%" stop-color="#facfff" stop-opacity=".75" />
        <stop offset="100%" stop-color="hsl(265, 100%, 81%)" stop-opacity="0" />
      </radialGradient>
      <linearGradient id="g" x1="50%" y1="0%" x2="50%" y2="100%">
        <stop offset="0%" stop-color="#555" />
        <stop offset="100%" stop-opacity="0" />
      </linearGradient>
      <linearGradient id="j" x1="50%" y1="0%" x2="50%" y2="100%">
        <stop offset="0%" stop-color="#ff9366" />
        <stop offset="100%" stop-color="hsla(0, 100%, 51%, 1.00)" stop-opacity="0" />
      </linearGradient>
    </defs>
    <g stroke-linecap="round">
      <path
        d="M650 450c0 145.134-104.866 262.788-250 262.788S150 595.134 150 450s104.866-262.788 250-262.788S650 304.866 650 450"
        fill="#946fcb" opacity=".25" filter="url(#c)" />
      <circle r="250" cx="400" cy="400" fill="hsl(265, 100%, 81%)" />
      <circle r="250" cx="400" cy="400" fill="url(#d)" />
      <circle r="250" cx="400" cy="400" fill="url(#e)" />
      <path d="M258.706 415.5q-8-162 139 0" stroke-width="20" stroke="#000" fill="none" filter="url(#f)" />
      <path d="M258.706 415.5q-8-162 139 0" stroke-width="6.667" stroke="url(#g)" fill="none" filter="url(#h)" />
      <path d="M430.405 407.5q126-158 121 0" stroke-width="20" stroke="#000" fill="none" filter="url(#f)" />
      <path d="M430.405 407.5q126-158 121 0" stroke-width="6.667" stroke="url(#g)" fill="none" filter="url(#h)" />
      <path d="M264.5 514.5q188 94 257 0" stroke-width="20" stroke="hsla(0, 100%, 51%, 1.00)" fill="none"
        filter="url(#i)" transform="rotate(358 400 400)" />
      <path d="M264.5 514.5q188 94 257 0" stroke-width="6.667" stroke="url(#j)" fill="none" filter="url(#h)"
        transform="rotate(358 400 400)" />
    </g>
  </svg>
</svg>
