<svg width="28" height="28" viewBox="0 0 28 28" xmlns="http://www.w3.org/2000/svg">
  <path
    d="M24.749 22.93C26.1851 21.2021 27.184 19.1537 27.661 16.9582C28.1381 14.7626 28.0793 12.4845 27.4897 10.3164C26.9001 8.14837 25.7969 6.15423 24.2736 4.50268C22.7504 2.85112 20.8517 1.59075 18.7383 0.828183C16.6248 0.065613 14.3588 -0.176722 12.132 0.121678C9.90507 0.420078 7.78281 1.25043 5.94471 2.5425C4.10661 3.83457 2.60674 5.55034 1.57199 7.54467C0.537232 9.539 -0.00196831 11.7532 -3.544e-07 14C0.000754819 17.2662 1.15174 20.4278 3.251 22.93L3.231 22.947C3.301 23.031 3.381 23.103 3.453 23.186C3.543 23.289 3.64 23.386 3.733 23.486C4.013 23.79 4.301 24.082 4.603 24.356C4.695 24.44 4.79 24.518 4.883 24.598C5.203 24.874 5.532 25.136 5.873 25.38C5.917 25.41 5.957 25.449 6.001 25.48V25.468C8.3431 27.1162 11.1371 28.0007 14.001 28.0007C16.8649 28.0007 19.6589 27.1162 22.001 25.468V25.48C22.045 25.449 22.084 25.41 22.129 25.38C22.469 25.135 22.799 24.874 23.119 24.598C23.212 24.518 23.307 24.439 23.399 24.356C23.701 24.081 23.989 23.79 24.269 23.486C24.362 23.386 24.458 23.289 24.549 23.186C24.62 23.103 24.701 23.031 24.771 22.946L24.749 22.93ZM14 6C14.89 6 15.76 6.26392 16.5001 6.75838C17.2401 7.25285 17.8169 7.95566 18.1575 8.77792C18.4981 9.60019 18.5872 10.505 18.4135 11.3779C18.2399 12.2508 17.8113 13.0526 17.182 13.682C16.5526 14.3113 15.7508 14.7399 14.8779 14.9135C14.005 15.0872 13.1002 14.998 12.2779 14.6575C11.4557 14.3169 10.7529 13.7401 10.2584 13.0001C9.76392 12.26 9.5 11.39 9.5 10.5C9.5 9.30652 9.97411 8.16193 10.818 7.31802C11.6619 6.4741 12.8065 6 14 6ZM6.007 22.93C6.02435 21.617 6.55795 20.3636 7.49236 19.4409C8.42677 18.5183 9.68685 18.0007 11 18H17C18.3131 18.0007 19.5732 18.5183 20.5076 19.4409C21.4421 20.3636 21.9757 21.617 21.993 22.93C19.7998 24.9063 16.9523 26.0001 14 26.0001C11.0477 26.0001 8.20016 24.9063 6.007 22.93Z"
    fill="currentColor" />
</svg>